<svg version="1.1" id="Layer_1" xmlns:x="ns_extend;" xmlns:i="ns_ai;" xmlns:graph="ns_graphs;" xmlns="http://www.w3.org/2000/svg" xmlns:xlink="http://www.w3.org/1999/xlink" x="0px" y="0px" viewBox="0 0 171.5 53.3" style="enable-background:new 0 0 171.5 53.3;" xml:space="preserve">
 <metadata>
  <sfw xmlns="ns_sfw;">
   <slices>
   </slices>
   <sliceSourceBounds bottomLeftOrigin="true" height="53.3" width="171.5" x="114.5" y="-226.8">
   </sliceSourceBounds>
  </sfw>
 </metadata>
 <g>
  <g>
   <path d="M2.5,2.5C2.5,2.1,1.4,1,1,1H0V0h5.8l6,15.1h0.1L18.2,0h5.2v1h-1c-0.4,0-1.5,1.1-1.5,1.5v15c0,0.4,1.2,1.5,1.5,1.5h1v1
			h-7.7v-1h1c0.4,0,1.5-1.1,1.5-1.5V2.9L11,20.3L3.7,2.6v14.8c0,0.4,1.2,1.5,1.5,1.5h1v1H0v-1h1c0.4,0,1.5-1.1,1.5-1.5V2.5z">
   </path>
   <path d="M31.9,11.4c0.4-2,0-3.8-2.2-3.8c-2.6,0-3.8,2.1-3.8,5.1c0,2.9,1.8,5.3,4.8,5.3c2.2,0,3.2-0.8,4.1-2.3h0.8
			c-0.8,2.8-2.6,4.6-5.8,4.6c-3.6,0-5.9-3.1-5.9-6.7c0-4.2,2.8-6.9,6.2-6.9c2,0,3.4,0.6,4.6,1.8l-1.9,2.9L31.9,11.4z">
   </path>
   <path d="M58,3.9c1,0,1.7-0.7,1.7-1.7S58.9,0.6,58,0.6c-1,0-1.7,0.6-1.7,1.6S57,3.9,58,3.9">
   </path>
   <path d="M76.3,19c-0.4,0-1.4-0.9-1.4-1.4v-7.2c0-2.2-1.6-3.7-3.6-3.7c-2.3,0-3.5,1.3-5.1,2.9L65.7,7h-4.1v1h0.8
			c0.4,0,1.4,1,1.4,1.4v8.3c0,0.4-1,1.4-1.4,1.4h-0.8h-0.8c-0.4,0-1.4-0.9-1.4-1.4V7h-4.6v1h0.8C56,8,57,8.9,57,9.3v8.3
			c0,0.4-1,1.4-1.4,1.4h-0.8h-0.7c-0.4,0-2-1.2-2.4-1.7l-7-9.3l4.9-5.2C49.9,2.5,51.8,1,52.2,1h1V0h-7.2v1h1c0.4,0,1.5,1.4,1.2,1.7
			l-7.1,8V2.5c0-0.4,1.2-1.5,1.5-1.5h1V0h-7.8v1h1c0.4,0,1.5,1.1,1.5,1.5v15c0,0.4-1.2,1.5-1.5,1.5h-1v1h7.8v-1h-1
			c-0.4,0-1.5-1.1-1.5-1.5v-5.3l2-2.2l6.9,10h4.9h6.9h6.8v-1h-0.7c-0.4,0-1.4-0.9-1.4-1.4V11c0-0.9,2.4-2.7,4.2-2.7
			c1.4,0,2.1,1,2.1,2.2v7.1c0,0.4-1,1.4-1.4,1.4h-0.7v1H77v-1H76.3z">
   </path>
   <path d="M78.7,15.4c0,1.2,1.8,3.8,4.6,3.8c1.6,0,2.5-0.6,2.5-1.8c0-1.5-1.3-1.9-2.4-2.4c-0.9-0.4-1.6-0.7-2.7-1.2
			c-1.6-0.7-2.7-1.8-2.7-3.5c0-2.3,1.4-3.7,3.9-3.7c1.4,0,2.2,0.7,3.2,0.7c0.4,0,0.6-0.1,0.7-0.4h0.7v4h-0.8c0-1.1-1.5-3.3-3.9-3.3
			c-1.5,0-2.2,0.7-2.2,1.7c0,1.1,0.8,1.5,2.1,2.1c1,0.4,1.7,0.7,2.8,1.2c1.4,0.5,3,1.7,3,3.8c0,2.5-1.7,3.9-4.1,3.9
			c-1.6,0-2.6-0.8-3.7-0.8c-0.5,0-0.7,0.1-1,0.4h-0.6v-4.6H78.7z">
   </path>
   <path d="M88.2,13.5c0-3.8,2.6-6.8,6-6.8c2.9,0,4.6,2,4.7,4.6l0.1,0.9l-8.6,0.7c0,2.6,1.8,5.2,4.7,5.2c2.2,0,3.2-0.8,4-2.3h0.8
			c-0.9,2.8-2.5,4.6-5.6,4.6C90.6,20.3,88.2,17.1,88.2,13.5 M96.7,11.4c0.2-1.8-0.1-3.7-2.6-3.7c-2.7,0-3.8,2.2-3.8,4.2L96.7,11.4z">
   </path>
   <path d="M101.2,9.4C101,9,99.8,8,99.5,8h-0.6V7h6.9v1H105c-0.4,0-1.2,0.9-1.2,1.4l3,6.9l3-6.9c0-0.5-0.8-1.4-1.1-1.4h-0.8V7h5.2v1
			h-0.6c-0.3,0-1.2,1-1.5,1.4l-4.4,10l-3.3,7.2l-1.2-0.5l3.5-7.1L101.2,9.4z">
   </path>
   <path d="M38.6,30.3c0,1.6,1.1,2.9,2.8,3.5c2.6,2.8,5.7,5.7,8.4,8.1c0.8-1.3,1-2.6,1-4.3c0-1.8-1.2-2.9-3.2-3v-1h7.1v1H54
			c-0.4,0-1.8,1.6-1.8,2.2c-0.1,1.7-0.5,3.8-1.8,5.6c1.5,1.3,2.9,2.4,4.1,3.2h1.2v1h-2.2c-1.9,0-3.3-0.5-5-2
			c-1.6,1.5-3.6,2.4-6.6,2.4c-3.2,0-6.3-2.4-6.3-5.9c0-2.8,1.4-4.8,3.2-6.1c-1-1.2-1.6-2.4-1.6-4.2c0-2.9,1.9-4.4,4.8-4.4
			c1.8,0,2.8,0.6,3.6,0.6c0.4,0,0.7,0,0.9-0.4h0.9v4.7h-0.9c0-1.3-2-4-4.6-4C39.9,27.4,38.6,28.5,38.6,30.3 M37.7,39.9
			c0,2.9,3,5.6,5.9,5.6c1.8,0,3.2-0.5,4.3-1.3c-2.9-2.5-6.1-5.6-8.6-8.5C38.3,36.7,37.7,37.8,37.7,39.9">
   </path>
   <path d="M76.2,33.8c0-2.1-2.3-6.2-6.1-6.2c-3.5,0-5.5,1.9-5.9,6.4c-0.1,1.8-0.1,3.3,0.1,5.1c0.3,3.5,2.7,6.4,6.8,6.4
			c3.5,0,5.1-1.5,6.4-4.1h1c-1.3,3.6-4.1,5.7-8.1,5.7c-5.7,0-9.4-4.7-9.4-10.4c0-5.7,3.3-10.3,8.9-10.3c2.1,0,3.5,0.9,5,0.9
			c0.6,0,0.9-0.2,1.2-0.5H77v7.1H76.2z">
   </path>
   <path d="M79.9,40.2c0-4.2,3-6.8,6.4-6.8c3.4,0,6.4,2.6,6.4,6.8c0,4.2-3,6.9-6.4,6.9C82.9,47.1,79.9,44.4,79.9,40.2 M90.2,42.4
			c0.2-1.3,0.2-3.1,0-4.4c-0.2-2.1-1.4-3.5-3.8-3.5c-2.3,0-3.5,1.4-3.8,3.5c-0.2,1.3-0.2,3.1,0,4.4c0.3,2,1.4,3.5,3.8,3.5
			C88.8,45.8,90,44.4,90.2,42.4">
   </path>
   <path d="M113.8,44.3c0,0.4,1,1.4,1.4,1.4h0.6v1h-6.5v-1h0.7c0.4,0,1.4-0.9,1.4-1.4v-7.2c0-1.3-0.6-2.1-2-2.1
			c-1.7,0-3.8,1.6-3.8,2.5v6.8c0,0.4,1,1.4,1.4,1.4h0.7v1h-6.6v-1h0.7c0.4,0,1.4-0.9,1.4-1.4v-7.2c0-1.3-0.7-2.1-2.1-2.1
			c-1.7,0-3.8,1.7-3.8,2.6v6.7c0,0.4,1,1.4,1.4,1.4h0.7v1h-6.6v-1h0.7c0.4,0,1.4-0.9,1.4-1.4v-8.3c0-0.4-1-1.4-1.4-1.4h-0.7v-1h4
			l0.5,2.5c1.5-1.6,2.4-2.8,4.7-2.8c1.7,0,3.2,0.9,3.4,2.7c1.6-1.6,2.6-2.7,4.8-2.7c1.9,0,3.5,1.3,3.5,3.7V44.3z">
   </path>
   <path d="M119.6,33.7l0.4,2.7c1.1-2.1,2.5-3,4.7-3c3.2,0,5.1,2.7,5.1,6.6s-2.2,7-5.3,7c-2.3,0-3.5-0.9-4.4-2.6v6.2
			c0,0.4,1,1.4,1.4,1.4h0.9v1h-6.9v-1h0.9c0.4,0,1.4-0.9,1.4-1.4V36.1c0-0.4-1-1.4-1.4-1.4h-0.9v-1H119.6z M120.1,38.4v3.4
			c0,2,1.6,3.8,3.8,3.8c2.2,0,3.3-1.4,3.5-3.5c0.2-1.2,0.2-2.7,0-3.9c-0.3-2.1-1.4-3.4-3.3-3.4C121.9,34.9,120.7,36.4,120.1,38.4">
   </path>
   <path d="M158,45.7c-0.4,0-1.4-0.9-1.4-1.4v-7.2c0-2.2-1.6-3.7-3.6-3.7c-2.3,0-3.5,1.3-5.1,2.9l-0.5-2.7h-4.1v1h0.8
			c0.4,0,1.4,1,1.4,1.4v8.3c0,0.4-1,1.4-1.4,1.4h-0.8h-0.8c-0.4,0-1.4-0.9-1.4-1.4v-7.1c0-2.6-2.1-3.9-4.9-3.9c-2.6,0-4.1,0.9-5.2,2
			l1.7,2.6h0.9c-1-2.2-0.2-3.6,2-3.6c2.3,0,3.1,1,3,2.9l0,1.6l-3.3,0.7c-1.8,0.4-4.2,1.3-4.2,3.9c0,2.1,1.5,3.5,3.3,3.5
			c1.9,0,3.3-1.5,4.3-2.9l0.3,2.6h4.2h6.8v-1h-0.7c-0.4,0-1.4-0.9-1.4-1.4v-6.6c0-0.9,2.4-2.7,4.2-2.7c1.4,0,2.1,1,2.1,2.2v7.1
			c0,0.4-1,1.4-1.4,1.4H152v1h6.6v-1H158z M138.7,42.9c-0.5,1-1.9,2.3-3.2,2.3c-1.3,0-2.1-1-2.1-2.1c0-1.3,0.5-2.2,2.2-2.6l3.1-0.8
			V42.9z">
   </path>
   <path d="M159.6,36.2c-0.2-0.4-1.3-1.5-1.7-1.5h-0.6v-1h6.9v1h-0.8c-0.4,0-1.2,0.9-1.2,1.4l3,6.9l3-6.9c0-0.5-0.8-1.4-1.1-1.4h-0.8
			v-1h5.2v1h-0.6c-0.3,0-1.2,1-1.5,1.4l-4.4,10l-3.3,7.2l-1.2-0.5l3.5-7.1L159.6,36.2z">
   </path>
  </g>
 </g>
</svg>