<svg version="1.2" xmlns="http://www.w3.org/2000/svg" viewBox="0 0 1550 348" width="1550" height="348">
	<title>Verizon_2024-svg</title>
	<defs>
		<linearGradient id="g1" x2="1" gradientUnits="userSpaceOnUse" gradientTransform="matrix(54.902,132.468,-34.645,14.359,76.223,183.496)">
			<stop offset="0" stop-color="#f50a23"/>
			<stop offset="1" stop-color="#f5ff1e"/>
		</linearGradient>
	</defs>
	<style>
		.s0 { fill: #f50a23 } 
		.s1 { fill: url(#g1) } 
	</style>
	<g id="g19">
		<path id="path19" class="s0" d="m811.3 89.1v60.3h117.4v1.4l-117.4 131.3v57.8h214.3v-60.3h-121.3v-1.4l115.9-130.3v-58.8z"/>
		<path id="path18" class="s0" d="m713.5 0h76.8v68.1h-76.8zm0 89.1h76.8v250.8h-76.8z"/>
		<path id="path17" class="s0" d="m676.8 87.7c-29.9 0-49.9 13.7-67 43.1h-1.5v-41.7h-72.9v250.8h76.3v-115.1c0-52.4 31.3-75.4 79.3-69.1h1.4v-66.1c-3.9-1.4-8.3-1.9-15.6-1.9z"/>
		<path id="path16" fill-rule="evenodd" class="s0" d="m1294.7 215c0 74.9-53.4 132.7-133.1 132.7-79.8 0-133.1-57.8-133.1-132.7 0-75.4 53.4-132.7 133.1-132.7 79.7 0 133.1 57.3 133.1 132.7zm-188.9 0c0 46 19.1 76.4 55.3 76.4 36.2 0 56.3-30.4 56.2-76.4 0-46.5-20-76.4-56.2-76.4-36.2 0-55.3 29.9-55.3 76.4z"/>
		<path id="path15" fill-rule="evenodd" class="s0" d="m473.7 112.2c29.9 26.9 44.1 70 43.6 123.9h-180.5c3.9 33.8 24.4 55.8 58.2 55.8 22.5 0 37.7-9.8 45-26.4h73.4c-4.4 22-20.1 44.1-42.1 59.2-20.5 14.2-45.5 22.6-76.8 22.6-82.7 0-132.6-57.9-132.6-133.3 0-74.9 52.4-132.2 127.7-132.2 35.2 0 63.1 10.8 84.1 30.4zm-136.4 73.9h102.2c-2.9-29.4-21.5-49.5-48.4-49.5-31.8 0-47.9 19.6-53.8 49.5z"/>
		<path id="path14" class="s0" d="m1462.9 81.8c-34.2 0-58.2 14.7-76.3 41.6h-1.5v-34.3h-73.8v250.8h76.3v-139.6c0-31.8 18.6-54.4 46-54.4 26.4 0 40.1 18.6 40.1 45.1v148.9h76.3v-163.6c0-55.3-33.3-94.5-87.1-94.5z"/>
		<path id="path27" class="s1" d="m0.5 89.1l95 247.7c0.7 1.9 2.5 3.1 4.6 3.1h77c-2 0-3.8-1.2-4.5-3.1l-95-247.7z"/>
		<path id="path29" class="s0" d="m276.6 89.1l-95 247.7c-0.7 1.9-2.5 3.1-4.5 3.1h-77c2 0 3.8-1.2 4.5-3.1l95-247.7z"/>
	</g>
</svg>