<?xml version="1.0" encoding="UTF-8" standalone="no"?>
<svg
   width="165"
   height="50"
   viewBox="0 0 165 50"
   fill="none"
   version="1.1"
   id="svg3"
   sodipodi:docname="logo-viyaga-bold.svg"
   inkscape:version="1.3.2 (091e20e, 2023-11-25, custom)"
   inkscape:export-filename="logo-viyaga-bold.svg"
   inkscape:export-xdpi="96"
   inkscape:export-ydpi="96"
   xmlns:inkscape="http://www.inkscape.org/namespaces/inkscape"
   xmlns:sodipodi="http://sodipodi.sourceforge.net/DTD/sodipodi-0.dtd"
   xmlns="http://www.w3.org/2000/svg"
   xmlns:svg="http://www.w3.org/2000/svg">
  <sodipodi:namedview
     id="namedview1"
     pagecolor="#ffffff"
     bordercolor="#000000"
     borderopacity="0.25"
     inkscape:showpageshadow="2"
     inkscape:pageopacity="0.0"
     inkscape:pagecheckerboard="0"
     inkscape:deskcolor="#d1d1d1"
     inkscape:zoom="7.8060606"
     inkscape:cx="96.847826"
     inkscape:cy="45.541537"
     inkscape:window-width="1920"
     inkscape:window-height="1111"
     inkscape:window-x="-9"
     inkscape:window-y="-9"
     inkscape:window-maximized="1"
     inkscape:current-layer="g2" />
  <g
     clip-path="url(#clip0_23_5)"
     id="g2">
    <rect
       width="50"
       height="50"
       rx="25"
       fill="url(#paint0_linear_23_5)"
       id="rect1"
       x="0.37875941"
       y="0"
       style="fill:url(#paint0_linear_23_5)" />
    <path
       style="fill:#ffffff;fill-opacity:1;stroke-width:15.216;paint-order:stroke fill markers"
       d="M 42.613005,12.829273 C 36.895094,31.482043 25.290371,43.358874 25.290371,43.358874 L 15.025554,33.086904 11.093047,28.796484 C 1.1179156,19.521949 20.26819,5.7396654 12.84963,16.411605 l 11.254429,9.464941 11.260887,-13.635542 z"
       id="path3" />
    <text
       xml:space="preserve"
       id="text4"
       style="white-space:pre;shape-inside:url(#rect4);display:inline;fill:#ffffff;fill-opacity:1;stroke-width:15.8;paint-order:stroke fill markers" />
    <text
       xml:space="preserve"
       style="fill:#ffffff;fill-opacity:1;stroke-width:15.8;paint-order:stroke fill markers"
       x="134.16499"
       y="26.92"
       id="text5"><tspan
         id="tspan5"
         x="134.16499"
         y="26.92" /></text>
    <path
       d="M 70.406316,18.873382 64.371054,35.888458 H 59.184122 L 53.148859,18.873382 h 4.411317 l 4.217412,12.84614 4.24165,-12.84614 z m 3.805355,2.084468 q -1.09071,0 -1.793612,-0.630188 -0.678664,-0.654426 -0.678664,-1.599708 0,-0.96952 0.678664,-1.599708 0.702902,-0.654426 1.793612,-0.654426 1.066472,0 1.745136,0.654426 0.702902,0.630188 0.702902,1.599708 0,0.945282 -0.702902,1.599708 -0.678664,0.630188 -1.745136,0.630188 z m 2.06023,1.405804 V 35.888458 H 72.127203 V 22.363654 Z m 16.821174,0 -8.483301,19.947874 H 80.149982 L 83.252446,35.427936 77.75042,22.363654 h 4.629458 l 3.126702,8.459062 3.102465,-8.459062 z m 0.678664,6.738164 q 0,-2.084468 0.775616,-3.659938 0.799854,-1.57547 2.157182,-2.4238 1.357328,-0.84833 3.02975,-0.84833 1.430043,0 2.496513,0.581712 1.09071,0.581712 1.67242,1.526994 v -1.914802 h 4.1447 v 13.524804 h -4.1447 v -1.914802 q -0.60595,0.945282 -1.69666,1.526994 -1.06647,0.581712 -2.496511,0.581712 -1.648184,0 -3.005512,-0.84833 -1.357328,-0.872568 -2.157182,-2.448038 -0.775616,-1.599708 -0.775616,-3.684176 z m 10.131481,0.02424 q 0,-1.551232 -0.87256,-2.448038 -0.84833,-0.896806 -2.08447,-0.896806 -1.236141,0 -2.108709,0.896806 -0.84833,0.872568 -0.84833,2.4238 0,1.551232 0.84833,2.472276 0.872568,0.896806 2.108709,0.896806 1.23614,0 2.08447,-0.896806 0.87256,-0.896806 0.87256,-2.448038 z m 12.28869,-6.956306 q 1.43004,0 2.49651,0.581712 1.09071,0.581712 1.67243,1.526994 v -1.914802 h 4.14469 V 35.86422 q 0,1.866326 -0.75137,3.369082 -0.72714,1.526994 -2.25414,2.4238 -1.50275,0.896806 -3.75689,0.896806 -3.00551,0 -4.87184,-1.430042 -1.86632,-1.405804 -2.13294,-3.829604 h 4.09622 q 0.19391,0.775616 0.92105,1.2119 0.72714,0.460522 1.79361,0.460522 1.28461,0 2.03599,-0.751378 0.77562,-0.72714 0.77562,-2.351086 v -1.914802 q -0.60595,0.945282 -1.67243,1.551232 -1.06647,0.581712 -2.49651,0.581712 -1.67242,0 -3.02975,-0.84833 -1.35733,-0.872568 -2.15718,-2.448038 -0.77562,-1.599708 -0.77562,-3.684176 0,-2.084468 0.77562,-3.659938 0.79985,-1.57547 2.15718,-2.4238 1.35733,-0.84833 3.02975,-0.84833 z m 4.16894,6.956306 q 0,-1.551232 -0.87257,-2.448038 -0.84833,-0.896806 -2.08447,-0.896806 -1.23614,0 -2.10871,0.896806 -0.84833,0.872568 -0.84833,2.4238 0,1.551232 0.84833,2.472276 0.87257,0.896806 2.10871,0.896806 1.23614,0 2.08447,-0.896806 0.87257,-0.896806 0.87257,-2.448038 z m 6.32614,-0.02424 q 0,-2.084468 0.77561,-3.659938 0.79986,-1.57547 2.15719,-2.4238 1.35732,-0.84833 3.02975,-0.84833 1.43004,0 2.49651,0.581712 1.09071,0.581712 1.67242,1.526994 v -1.914802 h 4.1447 v 13.524804 h -4.1447 v -1.914802 q -0.60595,0.945282 -1.69666,1.526994 -1.06647,0.581712 -2.49651,0.581712 -1.64819,0 -3.00551,-0.84833 -1.35733,-0.872568 -2.15719,-2.448038 -0.77561,-1.599708 -0.77561,-3.684176 z m 10.13148,0.02424 q 0,-1.551232 -0.87257,-2.448038 -0.84833,-0.896806 -2.08446,-0.896806 -1.23614,0 -2.10871,0.896806 -0.84833,0.872568 -0.84833,2.4238 0,1.551232 0.84833,2.472276 0.87257,0.896806 2.10871,0.896806 1.23613,0 2.08446,-0.896806 0.87257,-0.896806 0.87257,-2.448038 z"
       id="text1"
       style="font-size:24.238px;font-family:Poppins;-inkscape-font-specification:'Poppins, Normal';fill:#1a1a1a;stroke:#000000;stroke-width:33.3736;stroke-opacity:0;paint-order:stroke fill markers"
       transform="scale(1.0616525,0.94192779)"
       aria-label="Viyaga" />
    <text
       xml:space="preserve"
       style="font-style:normal;font-variant:normal;font-weight:normal;font-stretch:normal;font-size:28.7305px;font-family:Garamond;-inkscape-font-specification:'Garamond, Normal';font-variant-ligatures:normal;font-variant-caps:normal;font-variant-numeric:normal;font-variant-east-asian:normal;fill:#000000;stroke:#4a493d;stroke-width:310.207;stroke-opacity:0;paint-order:stroke fill markers"
       x="161.02873"
       y="28.567547"
       id="text2"><tspan
         id="tspan2"
         x="161.02873"
         y="28.567547" /></text>
  </g>
  <defs
     id="defs3">
    <rect
       x="57.805981"
       y="15.8"
       width="92.454208"
       height="21.499884"
       id="rect4" />
    <linearGradient
       id="paint0_linear_23_5"
       x1="41"
       y1="5.5"
       x2="9"
       y2="43.25"
       gradientUnits="userSpaceOnUse"
       gradientTransform="translate(-45.38624,5.1199998)">
      <stop
         stop-color="#2FB97D"
         id="stop2" />
      <stop
         offset="1"
         stop-color="#1AB69D"
         id="stop3" />
    </linearGradient>
    <clipPath
       id="clip0_23_5">
      <rect
         width="156"
         height="50"
         fill="#ffffff"
         id="rect3"
         x="0"
         y="0" />
    </clipPath>
  </defs>
</svg>
